<svg width="186.871" height="50" viewBox="0 0 49.443 13.229" xmlns="http://www.w3.org/2000/svg"><defs><clipPath id="a"><path fill="#fff" transform="translate(0 .002)" d="M0 0h134.527v29.567H0z"/></clipPath></defs><path style="fill:#fff;fill-opacity:1;stroke:none;stroke-width:.182176;stroke-opacity:.5;-inkscape-stroke:none;stop-color:#000" d="M-63.016 181.257h184.565v49.383H-63.016z" transform="matrix(.26789 0 0 .26789 16.881 -48.557)"/><g clip-path="url(#a)" transform="translate(2.295 2.193) scale(.29902)" style="fill:none"><path d="M18.528 9.234H9.231v9.297H0V29.57h.92a10.61 10.61 0 0 0 3.909-.755c1.248-.526 2.365-1.249 3.318-2.201.394-.394.756-.822 1.084-1.281v4.27h.92a10.61 10.61 0 0 0 3.91-.755c1.248-.526 2.365-1.249 3.317-2.201a11.9 11.9 0 0 0 1.183-1.38v4.303h.92a10.44 10.44 0 0 0 3.876-.755 10.133 10.133 0 0 0 3.285-2.201 10.133 10.133 0 0 0 2.201-3.285c.526-1.249.756-2.53.756-3.877v-.92h-4.402c.493-.361.953-.722 1.38-1.182a9.77 9.77 0 0 0 2.2-3.318 9.739 9.739 0 0 0 .79-3.877v-.92H25.36c.46-.328.887-.69 1.281-1.084a9.77 9.77 0 0 0 2.201-3.318c.526-1.248.789-2.562.789-3.91v-.92H18.528ZM9.231 20.47a9.28 9.28 0 0 1-.558 2.135 8.271 8.271 0 0 1-1.807 2.694 8.41 8.41 0 0 1-2.727 1.806 9.102 9.102 0 0 1-2.3.592v-7.359h7.392zm1.807-9.429h7.391v.131a8.861 8.861 0 0 1-.558 2.136 8.97 8.97 0 0 1-1.807 2.727c-.755.788-1.708 1.38-2.727 1.806a9.11 9.11 0 0 1-2.3.592zm7.424 5.026v2.464h-2.496a11.72 11.72 0 0 0 1.412-1.182c.362-.395.756-.822 1.084-1.282zm-.591 6.538a8.27 8.27 0 0 1-1.807 2.694 8.409 8.409 0 0 1-2.727 1.806 9.102 9.102 0 0 1-2.3.592v-7.063c0-.099.034-.197.034-.263h7.391a6.828 6.828 0 0 1-.591 2.234zm9.823-2.267a8.863 8.863 0 0 1-.592 2.267 8.27 8.27 0 0 1-1.807 2.694 8.27 8.27 0 0 1-2.693 1.806 8.86 8.86 0 0 1-2.267.592v-7.359ZM20.334 1.81h7.425a9.478 9.478 0 0 1-.591 2.3 8.97 8.97 0 0 1-1.807 2.726 8.408 8.408 0 0 1-2.727 1.807c-.69.296-1.412.46-2.168.558h-.131zm-.065 9.527c0-.099.033-.164.033-.263.099 0 .23-.033.329-.033h7.063a9.478 9.478 0 0 1-.592 2.3 8.971 8.971 0 0 1-1.807 2.726 8.409 8.409 0 0 1-2.726 1.807 9.102 9.102 0 0 1-2.3.591z" fill="#2144eb"/></g><path d="M59.997 369.502c-.198-.192-.33-.351-.496-.479-2.246-1.98-6.044-1.884-8.323.224-2.379 2.171-2.775 6.099-.958 8.813 2.213 3.321 7.266 3.608 9.645.958.033-.032.066-.032.132-.064v1.5h3.17v-12.549h-3.203v1.597zm0 4.726v1.788a.628.628 0 0 1-.1.352c-1.486 1.852-4.03 2.011-5.714 1.117-1.32-.702-1.816-1.852-1.816-3.257-.033-1.884.99-3.225 2.741-3.704 1.75-.48 3.634.096 4.757 1.469a.656.656 0 0 1 .132.351v1.884zM32.737 369.517c-1.192-1.278-2.583-1.884-4.272-1.916-2.152-.032-3.94.702-5.231 2.363-1.358 1.724-1.689 3.704-1.258 5.812.53 2.586 2.483 4.47 5.165 4.917 2.086.352 3.973-.127 5.463-1.692.033-.032.066-.032.133-.096v1.533h3.145v-12.55h-3.145zm0 6.482a.47.47 0 0 1-.133.352c-1.324 1.692-4.006 2.171-5.86 1.053-.927-.543-1.424-1.373-1.623-2.395-.198-1.117-.066-2.203.63-3.161.86-1.182 2.118-1.565 3.575-1.501a4.414 4.414 0 0 1 3.212 1.565c.1.127.199.32.199.51.033.575 0 1.182 0 1.757V376zM90.589 368.071c-1.26-.509-2.584-.572-3.94-.35-1.583.255-2.94.923-3.941 2.163-1.324 1.59-1.712 3.435-1.389 5.438.356 2.195 1.55 3.817 3.617 4.739 1.906.858 3.908.922 5.944.445 1.065-.254 2.002-.731 2.874-1.4-.388-.763-.775-1.526-1.163-2.32-.097.063-.162.094-.226.126-1.26.89-2.648 1.272-4.199 1.145-.872-.063-1.68-.254-2.39-.763-.646-.445-1.065-1.018-1.291-1.813h9.85a8.583 8.583 0 0 0-.065-2.735c-.387-2.194-1.517-3.816-3.681-4.675zm-6.137 5.025c.194-1.813 1.81-3.021 3.811-2.894 1.712.127 3.1 1.431 3.036 2.894zM13.061 377.86c-1.576-.383-2.573-1.726-2.605-3.58-.032-1.758.804-3.132 2.444-3.644 1.544-.48 3.57-.223 4.566 1.694.836-.447 1.672-.927 2.54-1.374a5.4 5.4 0 0 0-1.64-2.046c-1.254-.959-2.7-1.31-4.244-1.31-1.35 0-2.637.287-3.826.99-3.12 1.854-3.795 6.074-2.155 8.983 1.03 1.79 2.637 2.78 4.63 3.1 1.77.288 3.505.128 5.081-.799a5.37 5.37 0 0 0 2.186-2.43c-.868-.479-1.704-.926-2.54-1.374-.836 1.758-2.636 2.206-4.437 1.79zM76.826 367.614c-.258 0-.355.065-.452.29-1.194 2.808-2.42 5.584-3.614 8.392-.033.097-.097.194-.162.323-.097-.226-.162-.355-.225-.517-1.195-2.743-2.357-5.486-3.55-8.23-.033-.097-.163-.258-.26-.258-1.032-.032-2.097 0-3.194 0 .032.13.064.258.097.355 1.84 4.034 3.646 8.101 5.486 12.135.097.194.194.259.42.259h2.517c.226 0 .323-.065.42-.259 1.807-4.034 3.614-8.036 5.454-12.07.032-.097.064-.226.129-.388-1.066-.032-2.066-.032-3.066-.032zM100.576 361.878h-3.08v18.484h3.08zM42.922 369.952v-2.063h-3.08v12.474h3.08v-6.793c0-.285.064-.54.256-.761.706-.984 1.7-1.587 2.855-1.873.545-.127 1.154-.159 1.732-.254v-3.079c-2.053-.063-3.657.699-4.843 2.35z" fill="#2144eb" style="stroke-width:.979948" transform="matrix(.30514 0 0 .30514 11.758 -106.686)"/><path d="M115.812 361.818c-.646.97-1.267 1.868-1.866 2.766-.359.52-.693 1.04-1.053 1.538-.12.165-.12.283 0 .449l2.943 4.327c.047.071.095.142.143.237-.096 0-.143.024-.215.024h-2.104a.443.443 0 0 1-.407-.213c-.599-.97-1.196-1.94-1.818-2.933-.048.095-.12.142-.144.213-.574.922-1.147 1.845-1.746 2.767-.047.071-.167.19-.24.19-.813.023-1.601 0-2.463 0 .287-.427.55-.828.838-1.23.765-1.112 1.506-2.247 2.272-3.359.12-.165.12-.283 0-.449a133.162 133.162 0 0 1-2.751-3.996c-.072-.095-.12-.19-.215-.308.12 0 .191-.023.263-.023h2.033c.191 0 .31.047.43.236.503.828 1.03 1.632 1.556 2.46.048.07.095.141.167.236.359-.568.693-1.112 1.028-1.655.216-.355.455-.734.67-1.088.047-.071.144-.166.215-.166.79-.023 1.603-.023 2.464-.023z" fill="#fff" style="stroke-width:.979948" transform="matrix(.30514 0 0 .30514 11.758 -106.686)"/><path d="M115.812 361.818c-.646.97-1.267 1.868-1.866 2.766-.359.52-.693 1.04-1.053 1.538-.12.165-.12.283 0 .449l2.943 4.327c.047.071.095.142.143.237-.096 0-.143.024-.215.024h-2.104a.443.443 0 0 1-.407-.213c-.599-.97-1.196-1.94-1.818-2.933-.048.095-.12.142-.144.213-.574.922-1.147 1.845-1.746 2.767-.047.071-.167.19-.24.19-.813.023-1.601 0-2.463 0 .287-.427.55-.828.838-1.23.765-1.112 1.506-2.247 2.272-3.359.12-.165.12-.283 0-.449a133.162 133.162 0 0 1-2.751-3.996c-.072-.095-.12-.19-.215-.308.12 0 .191-.023.263-.023h2.033c.191 0 .31.047.43.236.503.828 1.03 1.632 1.556 2.46.048.07.095.141.167.236.359-.568.693-1.112 1.028-1.655.216-.355.455-.734.67-1.088.047-.071.144-.166.215-.166.79-.023 1.603-.023 2.464-.023z" fill="#2144eb" style="stroke-width:.979948" transform="matrix(.30514 0 0 .30514 11.758 -106.686)"/></svg>