<svg width="170" height="50" viewBox="0 0 44.979 13.229" xmlns="http://www.w3.org/2000/svg"><defs><clipPath id="a"><path fill="#fff" transform="translate(0 .002)" d="M0 0h134.527v29.567H0Z"/></clipPath></defs><path style="fill:#fff;fill-opacity:1;stroke:none;stroke-width:.0465479;stroke-opacity:.5;-inkscape-stroke:none;stop-color:#000" d="M0 0h44.98v13.23H0Z"/><g clip-path="url(#a)" transform="translate(2.295 2.193) scale(.29902)" style="fill:none"><path d="M18.528 9.234H9.231v9.297H0V29.57h.92a10.61 10.61 0 0 0 3.909-.755c1.248-.526 2.365-1.249 3.318-2.201a10.18 10.18 0 0 0 1.084-1.281v4.27h.92a10.61 10.61 0 0 0 3.91-.755c1.248-.526 2.365-1.249 3.317-2.201a11.9 11.9 0 0 0 1.183-1.38v4.303h.92a10.44 10.44 0 0 0 3.876-.755 10.133 10.133 0 0 0 3.285-2.201 10.133 10.133 0 0 0 2.201-3.285c.526-1.249.756-2.53.756-3.877v-.92h-4.402c.493-.361.953-.722 1.38-1.182a9.77 9.77 0 0 0 2.2-3.318 9.739 9.739 0 0 0 .79-3.877v-.92H25.36c.46-.328.887-.69 1.281-1.084a9.77 9.77 0 0 0 2.201-3.318c.526-1.248.789-2.562.789-3.91v-.92H18.528ZM9.231 20.47a9.28 9.28 0 0 1-.558 2.135 8.271 8.271 0 0 1-1.807 2.694 8.41 8.41 0 0 1-2.727 1.806 9.102 9.102 0 0 1-2.3.592v-7.359h7.392zm1.807-9.429h7.391v.131a8.861 8.861 0 0 1-.558 2.136 8.97 8.97 0 0 1-1.807 2.727c-.755.788-1.708 1.38-2.727 1.806a9.11 9.11 0 0 1-2.3.592zm7.424 5.026v2.464h-2.496a11.72 11.72 0 0 0 1.412-1.182c.362-.395.756-.822 1.084-1.282zm-.591 6.538a8.27 8.27 0 0 1-1.807 2.694 8.409 8.409 0 0 1-2.727 1.806 9.102 9.102 0 0 1-2.3.592v-7.063c0-.099.034-.197.034-.263h7.391a6.828 6.828 0 0 1-.591 2.234zm9.823-2.267a8.863 8.863 0 0 1-.592 2.267 8.27 8.27 0 0 1-1.807 2.694 8.27 8.27 0 0 1-2.693 1.806 8.86 8.86 0 0 1-2.267.592v-7.359ZM20.334 1.81h7.425a9.478 9.478 0 0 1-.591 2.3 8.97 8.97 0 0 1-1.807 2.726 8.408 8.408 0 0 1-2.727 1.807c-.69.296-1.412.46-2.168.558h-.131zm-.065 9.527c0-.099.033-.164.033-.263.099 0 .23-.033.329-.033h7.063a9.478 9.478 0 0 1-.592 2.3 8.971 8.971 0 0 1-1.807 2.726 8.409 8.409 0 0 1-2.726 1.807 9.102 9.102 0 0 1-2.3.591z" fill="#2144eb"/></g><path d="M30.066 6.064c-.06-.059-.1-.107-.152-.146-.685-.605-1.844-.575-2.54.068-.725.662-.846 1.861-.292 2.69.676 1.013 2.218 1.1 2.944.292.01-.01.02-.01.04-.02v.458h.967v-3.83h-.977v.488zm0 1.442v.545a.192.192 0 0 1-.03.108c-.454.565-1.23.614-1.744.34-.403-.213-.554-.564-.554-.993-.01-.575.302-.984.836-1.13a1.401 1.401 0 0 1 1.452.448.2.2 0 0 1 .04.107zm-8.318-1.438a1.74 1.74 0 0 0-1.304-.584c-.656-.01-1.202.214-1.596.72-.414.527-.515 1.131-.384 1.774.162.79.758 1.364 1.576 1.5.637.108 1.212-.038 1.667-.516.01-.01.02-.01.04-.029v.468h.96V5.57h-.96zm0 1.978a.143.143 0 0 1-.04.108c-.405.516-1.223.662-1.789.321-.283-.166-.434-.419-.495-.73-.06-.342-.02-.673.192-.965.262-.361.646-.478 1.09-.458a1.347 1.347 0 0 1 .981.477.27.27 0 0 1 .06.156c.01.175 0 .36 0 .536v.556zM39.4 5.627c-.385-.155-.789-.174-1.203-.107-.483.078-.897.282-1.202.66-.404.486-.523 1.049-.424 1.66.109.67.473 1.164 1.104 1.446.581.262 1.192.281 1.813.136.325-.078.611-.223.877-.428a49.297 49.297 0 0 1-.354-.708c-.03.02-.05.03-.07.039a1.882 1.882 0 0 1-1.28.35c-.267-.02-.513-.078-.73-.234a.955.955 0 0 1-.394-.553h3.006a2.619 2.619 0 0 0-.02-.834c-.118-.67-.463-1.165-1.123-1.427ZM37.528 7.16c.06-.553.552-.921 1.163-.883.522.04.946.437.926.883zM15.744 8.614c-.481-.117-.785-.526-.795-1.092-.01-.537.245-.956.746-1.112.47-.147 1.089-.068 1.393.517.255-.137.51-.283.775-.42a1.648 1.648 0 0 0-.5-.624c-.383-.292-.824-.4-1.295-.4-.412 0-.805.088-1.168.303-.952.565-1.158 1.853-.657 2.74.314.547.804.849 1.412.947.54.087 1.07.039 1.55-.244a1.639 1.639 0 0 0 .668-.742c-.265-.146-.52-.282-.775-.419-.255.536-.805.673-1.354.546ZM35.2 5.488c-.079 0-.108.02-.138.088-.364.857-.738 1.704-1.103 2.56-.01.03-.03.06-.05.1-.029-.07-.049-.109-.068-.158-.364-.837-.719-1.674-1.083-2.512-.01-.03-.05-.078-.08-.078-.314-.01-.64 0-.974 0 .01.04.02.078.03.108.561 1.231 1.112 2.472 1.674 3.703.03.06.059.079.128.079h.768c.069 0 .098-.02.128-.08.551-1.23 1.103-2.451 1.664-3.682.01-.03.02-.07.04-.119-.326-.01-.63-.01-.936-.01zm7.247-1.75h-.94v5.64h.94zM24.856 6.2v-.63h-.94v3.807h.94V7.305c0-.087.02-.165.078-.232.215-.3.518-.484.87-.572.167-.038.353-.048.53-.077v-.94c-.627-.019-1.117.214-1.478.717z" fill="#2144eb" style="stroke-width:.299021"/></svg>
